<svg width="14" height="14" viewBox="0 0 14 14" fill="none" xmlns="http://www.w3.org/2000/svg">
<path d="M3.13549 4.64856H0.234863V14H3.13549V4.64856Z" fill="#3DA7B4"/>
<path d="M1.68562 1.33346e-06C1.4456 -0.000301052 1.20829 0.0508285 0.989614 0.149961C0.770934 0.249094 0.575935 0.393937 0.417695 0.574777C0.259456 0.755618 0.141634 0.968274 0.0721309 1.19848C0.00262783 1.42869 -0.0169497 1.67114 0.0147127 1.90955C0.0463751 2.14796 0.128545 2.37683 0.255711 2.58082C0.382877 2.7848 0.552099 2.95918 0.752028 3.09225C0.951958 3.22533 1.17797 3.31402 1.41491 3.3524C1.65185 3.39077 1.89424 3.37793 2.12583 3.31473C2.40795 3.24043 2.66558 3.09303 2.87284 2.88735C3.0801 2.68166 3.22968 2.42492 3.30655 2.14295C3.37607 1.89222 3.38688 1.62878 3.33815 1.37318C3.28941 1.11757 3.18244 0.876687 3.02557 0.669298C2.8687 0.46191 2.66617 0.293614 2.43375 0.177523C2.20133 0.0614325 1.94531 0.000680828 1.68562 1.33346e-06Z" fill="#3DA7B4"/>
<path d="M10.5204 4.41693C9.10987 4.41693 8.16348 5.1909 7.77673 5.92725H7.73691V4.64832H4.95459V13.9952H7.85408V9.37421C7.85408 8.15455 8.08157 6.97137 9.59331 6.97137C11.0823 6.97137 11.1005 8.36771 11.1005 9.45172V13.9998H14V8.87039C14 6.35356 13.4574 4.41693 10.5204 4.41693Z" fill="#3DA7B4"/>
</svg>
