<svg width="24" height="24" viewBox="0 0 24 24" fill="none" xmlns="http://www.w3.org/2000/svg">
<path d="M8.96379 20C6.76861 20 4.72233 19.3455 3 18.2161C4.46232 18.3131 7.04298 18.0808 8.64814 16.5112C6.23345 16.3976 5.14446 14.499 5.00242 13.6876C5.20759 13.7688 6.1861 13.8661 6.73848 13.6389C3.96079 12.9249 3.53467 10.426 3.62936 9.66329C4.15018 10.0365 5.03399 10.1663 5.3812 10.1339C2.7929 8.23529 3.72405 5.37931 4.18174 4.76268C6.0392 7.40081 8.82296 8.88248 12.2668 8.9649C12.2019 8.67294 12.1676 8.36899 12.1676 8.0568C12.1676 5.81629 13.9341 4 16.1132 4C17.2517 4 18.2776 4.49583 18.9978 5.28893C19.7586 5.10616 20.9036 4.67831 21.4634 4.30832C21.1813 5.34686 20.3028 6.21321 19.7715 6.53431C19.7759 6.54524 19.7672 6.52334 19.7715 6.53431C20.2382 6.46194 21.5011 6.21313 22 5.86613C21.7533 6.44957 20.822 7.41964 20.0577 7.96273C20.1999 14.3917 15.4019 20 8.96379 20Z" fill="#3DA7B4"/>
</svg>
